<?xml version="1.0" encoding="UTF-8"?>
<svg width="165px" height="183px" viewBox="0 0 165 183" version="1.1" xmlns="http://www.w3.org/2000/svg" xmlns:xlink="http://www.w3.org/1999/xlink">
    <title>noun_fast_848423</title>
    <g id="v2" stroke="none" stroke-width="1" fill="none" fill-rule="evenodd">
        <g id="Artboard" transform="translate(-27.000000, -28.000000)" fill="#E00000" fill-rule="nonzero">
            <g id="noun_fast_848423" transform="translate(27.000000, 28.000000)">
                <path d="M155.002687,56.0129826 L149.747718,61.3143124 C166.50954,83.6073366 169.709464,113.265777 158.08727,138.609304 C146.465076,163.952832 121.883079,180.920455 94.0223615,182.829847 C92.2833069,182.943042 90.5568542,182.999821 88.8430034,182.999821 C67.2711107,183.046622 46.6984139,173.929398 32.2670227,157.926803 C30.5910467,155.985822 30.7742998,153.064431 32.6797464,151.347231 C34.585193,149.630031 37.5157446,149.745243 39.2799492,151.606712 C63.7077675,178.595727 105.306828,181.049568 132.749945,157.12031 C160.193061,133.191051 163.341283,91.7194379 139.823765,63.9366784 C138.227186,62.0622228 138.342401,59.2778067 140.088404,57.5411239 L148.33001,49.3155731 C149.525562,47.9960098 149.474628,45.9726591 148.214193,44.7146792 C146.953758,43.4566993 144.926457,43.4058652 143.604318,44.5990875 L135.041365,53.1453594 C133.376742,54.8061429 130.741325,54.9911475 128.86016,53.579276 C119.376431,46.4804888 108.165107,42.0385638 96.3852073,40.7127034 C93.990785,40.4530967 92.1750714,38.4377615 92.1698903,36.0339497 L92.1698903,20.8280003 C92.1496256,19.5640869 92.6385491,18.3449521 93.5269941,17.4440504 C94.4154392,16.5431488 95.6290395,16.0358891 96.895582,16.0360509 L101.224316,16.0360509 C103.072144,16.0360509 104.570105,14.541008 104.570105,12.6967791 C104.570105,10.8525503 103.072144,9.35750737 101.224316,9.35750737 L76.4238857,9.35750737 C74.5760571,9.35750737 73.078096,10.8525503 73.078096,12.6967791 C73.078096,14.541008 74.5760571,16.0360509 76.4238857,16.0360509 L80.7526193,16.0360509 C83.3625467,16.0360509 85.4783109,18.1476934 85.4783109,20.7525365 L85.4783109,36.0339497 C85.4742074,38.4313105 83.6688276,40.4442021 81.2818967,40.7127034 C66.004881,42.4585457 51.7981802,49.4081335 41.0568092,60.3898812 C39.8716037,61.5963684 38.1315189,62.0801407 36.4920281,61.6589657 C34.8525374,61.2377908 33.5627181,59.975655 33.1084329,58.3479929 C32.6541477,56.7203307 33.1044132,54.9744227 34.2896188,53.7679355 C45.5497072,42.2840371 60.1573869,34.6444716 76.0269276,31.9400403 L76.0269276,25.4690221 C69.3602971,24.8628517 64.2882417,19.2311902 64.3923617,12.5508 C64.4964818,5.87040986 69.7415898,0.398924893 76.4238857,0 L101.224316,0 C107.906611,0.398924893 113.15172,5.87040986 113.25584,12.5508 C113.35996,19.2311902 108.287904,24.8628517 101.621274,25.4690221 L101.621274,31.8645765 C112.186507,33.649235 122.254722,37.6416734 131.166298,43.5803266 L136.837128,37.920544 C141.832529,32.9296647 149.935906,32.9254414 154.936527,37.911111 C159.937148,42.8967806 159.94138,50.9843714 154.945978,55.9752507 L155.002687,56.0129826 Z M0,82.7648887 C0,85.3697318 2.11576423,87.4813743 4.72569167,87.4813743 L37.5408946,87.4813743 C40.1508221,87.4813743 42.2665863,85.3697318 42.2665863,82.7648887 C42.2665863,80.1600457 40.1508221,78.0484032 37.5408946,78.0484032 L4.74459444,78.0484032 C2.1420312,78.0484032 0.0293130196,80.1485504 0.0189027667,82.7460228 L0,82.7648887 Z M53.7216629,105.630411 C53.7216629,103.025568 51.6058987,100.913925 48.9959712,100.913925 L16.199671,100.913925 C13.5897436,100.913925 11.4739794,103.025568 11.4739794,105.630411 C11.4739794,108.235254 13.5897436,110.346896 16.199671,110.346896 L48.9959712,110.346896 C50.2493026,110.346896 51.4513008,109.849982 52.3375399,108.96547 C53.223779,108.080957 53.7216629,106.881301 53.7216629,105.630411 L53.7216629,105.630411 Z M4.74459444,133.231284 L37.5408946,133.231284 C40.1508221,133.231284 42.2665863,131.119642 42.2665863,128.514799 C42.2665863,125.909956 40.1508221,123.798313 37.5408946,123.798313 L4.74459444,123.798313 C2.134667,123.798313 0.0189027667,125.909956 0.0189027667,128.514799 C0.0189027667,131.119642 2.134667,133.231284 4.74459444,133.231284 Z M115.042238,87.4247765 L102.925565,99.5178455 C106.605031,106.492244 104.625221,115.103437 98.2672733,119.779104 C91.9093258,124.454772 83.0821006,123.791128 77.4977122,118.217618 C71.9133238,112.644109 71.2483847,103.83408 75.9331783,97.4885183 C80.6179719,91.1429567 89.2459729,89.1670035 96.2339852,92.8393019 L108.350659,80.7462329 C109.545994,79.553226 111.288234,79.0873038 112.921092,79.5239746 C114.553951,79.9606454 115.829359,81.2335687 116.266882,82.8632464 C116.704405,84.4929241 116.237574,86.2317696 115.042238,87.4247765 L115.042238,87.4247765 Z M95.3077496,106.932161 C95.3077496,103.358316 92.4049211,100.461143 88.8241006,100.461143 C85.2432802,100.461143 82.3404517,103.358316 82.3404517,106.932161 C82.3404517,110.506005 85.2432802,113.403179 88.8241006,113.403179 C92.400612,113.392817 95.2973678,110.501705 95.3077496,106.932161 L95.3077496,106.932161 Z M88.8241006,163.05841 C114.297382,163.098455 136.618614,146.049663 143.236123,121.49884 C149.853632,96.9480159 139.115693,71.0230316 117.060462,58.3020219 C95.0052303,45.5810123 67.1376804,49.239134 49.1282906,67.2193523 C47.280462,69.0635812 47.280462,72.053667 49.1282907,73.8978958 C50.9761193,75.7421247 53.9720414,75.7421247 55.81987,73.8978959 C69.2045831,60.5163134 89.3499261,56.5035094 106.85603,63.7318685 C124.362134,70.9602277 135.778681,88.0050964 135.778681,106.913295 C135.778681,125.821493 124.362134,142.866362 106.85603,150.094721 C89.3499261,157.32308 69.2045831,153.310276 55.81987,139.928694 C53.9720414,138.084465 50.9761193,138.084465 49.1282907,139.928694 C47.280462,141.772923 47.280462,144.763008 49.1282906,146.607237 C59.6474308,157.132848 73.9286762,163.051413 88.8241006,163.05841 L88.8241006,163.05841 Z" id="Shape"></path>
            </g>
        </g>
    </g>
</svg>