<svg xmlns="http://www.w3.org/2000/svg" width="136" height="51" viewBox="0 0 136 51">
    <g fill="none">
        <g>
            <path fill="#363636" d="M8.61 19.028c.509 0 .919-.05 1.23-.148.312-.098.53-.267.652-.505.123-.238.197-.447.222-.627.024-.18.037-.46.037-.837V4.529h4.699c.54 0 .96-.074 1.254-.221.197-.099.337-.275.419-.53.082-.254.123-.594.123-1.021 0-.427-.041-.771-.123-1.034-.082-.262-.246-.455-.492-.578-.246-.123-.632-.185-1.157-.185H1.796c-.541 0-.96.074-1.255.222-.197.098-.336.274-.418.529C.041 1.965 0 2.306 0 2.732c0 .427.041.772.123 1.034.082.263.246.456.492.579.246.123.631.184 1.156.184h4.724v12.357c0 .378.012.66.037.85.024.188.098.401.221.64.123.237.336.406.64.504.303.098.71.148 1.217.148zm17.812-.025c1.017 0 1.648-.213 1.894-.64.131-.23.21-.439.234-.628.024-.188.037-.463.037-.824V8.096c-.003-.327-.015-.577-.037-.748-.025-.189-.094-.406-.21-.653-.229-.443-.86-.664-1.894-.664-1.05 0-1.68.213-1.894.64-.131.246-.209.463-.234.652-.024.189-.036.472-.036.85v4.356c0 .64-.201 1.157-.603 1.551-.402.394-.927.59-1.575.59-.648 0-1.164-.188-1.55-.565-.385-.378-.578-.903-.578-1.576V8.222c0-.575-.049-.993-.147-1.256-.197-.623-.87-.935-2.018-.935-1.05 0-1.689.221-1.919.664-.114.247-.184.46-.209.64-.024.18-.037.468-.037.862v4.308c0 1.805.546 3.335 1.636 4.59 1.091 1.256 2.465 1.883 4.121 1.883.656 0 1.263-.18 1.82-.541.214-.148.435-.328.665-.542.23-.213.377-.377.443-.492 0 .394.082.73.246 1.01.23.393.844.59 1.845.59zm6.273.025c1.033 0 1.673-.214 1.92-.64.13-.246.208-.464.233-.653.024-.188.037-.471.037-.849v-5.17c0-.442.192-.82.578-1.131.385-.312.8-.468 1.242-.468.443 0 .8.066 1.07.197.271.131.554.197.85.197.59 0 1.04-.312 1.352-.936.312-.623.468-1.198.468-1.723 0-.525-.103-.906-.308-1.144-.205-.238-.463-.406-.775-.505-.311-.098-.598-.168-.86-.21-.263-.04-.587-.06-.973-.06-.385 0-.832.139-1.34.418-.509.279-.84.5-.997.664-.156.164-.274.304-.356.419 0-.28-.09-.55-.271-.812-.246-.378-.861-.567-1.845-.567-1.05 0-1.69.222-1.92.665-.114.23-.184.439-.208.628-.025.188-.037.471-.037.849v9.354c.033.476.18.828.443 1.058.344.28.91.419 1.697.419zm11.243-.025c1.28 0 1.985-.402 2.116-1.206.59.788 1.582 1.181 2.977 1.181 1.394 0 2.697-.644 3.911-1.932 1.214-1.288 1.82-2.79 1.82-4.504 0-1.715-.61-3.221-1.832-4.517-1.222-1.297-2.563-1.945-4.022-1.945-1.214 0-2.149.402-2.805 1.206v-5.22c-.002-.328-.015-.578-.037-.75-.025-.188-.102-.405-.234-.651C45.62.222 44.996 0 43.962 0c-1.049 0-1.689.222-1.918.665-.115.23-.185.439-.21.627-.024.189-.036.472-.036.85v14.695c0 .377.012.66.037.85.024.188.094.405.209.651.23.444.86.665 1.894.665zm4.33-4.308c-.607 0-1.115-.221-1.525-.664-.394-.443-.59-.932-.59-1.465s.192-1.03.577-1.49c.386-.459.906-.688 1.562-.688.657 0 1.181.225 1.575.677.394.45.59.947.59 1.489 0 .541-.213 1.034-.64 1.477-.426.443-.942.664-1.55.664zm14.49 4.554c1.083 0 2.128-.25 3.137-.75 1.008-.501 1.865-1.28 2.57-2.339.706-1.058 1.058-2.269 1.058-3.63 0-1.97-.68-3.59-2.041-4.862-1.362-1.272-2.928-1.908-4.7-1.908-1.77 0-3.345.64-4.723 1.92-1.377 1.28-2.066 2.905-2.066 4.874 0 1.313.348 2.49 1.045 3.532.697 1.042 1.554 1.83 2.571 2.363 1.017.534 2.067.8 3.15.8zm-.025-4.332c-.54 0-1.074-.197-1.599-.59-.524-.411-.787-1.014-.787-1.81s.254-1.4.763-1.81c.508-.41 1.058-.615 1.648-.615.59 0 1.14.197 1.648.591.509.394.763.993.763 1.797 0 .804-.27 1.411-.812 1.822-.541.41-1.082.615-1.624.615z" transform="translate(0 2) translate(.11 28.357)"/>
            <path fill="#E00000" d="M88.442 19.003c.476 0 .87-.05 1.18-.148.624-.197.936-.861.936-1.993V3.2c0-.377-.013-.665-.037-.862-.025-.196-.103-.418-.234-.664-.23-.443-.865-.665-1.907-.665-1.041 0-1.701.222-1.98.665-.935 1.181-2.796 3.618-5.585 7.31L75.231 1.65l-.148-.147c-.098-.115-.307-.226-.627-.333-.32-.106-.701-.16-1.144-.16-1.033 0-1.673.214-1.919.64-.131.246-.209.464-.234.653-.024.188-.036.471-.036.849v13.766c.002.342.014.602.036.781.025.197.103.41.234.64.246.444.87.665 1.87.665 1.033 0 1.673-.221 1.919-.665.131-.23.209-.439.233-.627.025-.189.037-.472.037-.85V8.567c.082.099.607.817 1.575 2.154s1.615 2.211 1.943 2.622l.197.27c.131.164.349.333.652.505.304.172.64.258 1.009.258.369 0 .713-.094 1.033-.283.32-.188.52-.336.603-.443l.443-.578c.213-.28.713-.973 1.5-2.08.788-1.108 1.386-1.916 1.796-2.425v8.246c0 .575.041 1.001.123 1.28.082.214.197.378.345.493.147.114.36.213.64.295.278.082.655.123 1.13.123zm10.702.345c3.493 0 5.24-.73 5.24-2.191 0-.312-.107-.69-.32-1.132-.377-.739-.828-1.108-1.353-1.108-.263 0-.59.09-.984.27l-.271.1c-.541.196-1.287.295-2.239.295-.54 0-1.082-.156-1.623-.468-.542-.312-.812-.698-.812-1.157h5.83c.607 0 1.16-.242 1.66-.726.501-.484.751-1.227.751-2.228 0-1.017-.279-1.953-.836-2.806-1.066-1.608-2.74-2.412-5.019-2.412-2 0-3.67.62-5.006 1.858-1.337 1.24-2.005 2.892-2.005 4.96 0 1.641.516 3.126 1.55 4.455.524.69 1.258 1.244 2.201 1.662.943.418 2.022.628 3.236.628zm.688-7.631h-3.1c0-.492.263-.956.788-1.39.525-.436 1.054-.653 1.587-.653.533 0 .943.115 1.23.344.287.23.43.534.43.911 0 .525-.311.788-.935.788zm17.566 7.286c1.05 0 1.689-.221 1.919-.665.114-.23.184-.439.209-.627.024-.189.037-.472.037-.85V12.53c0-1.805-.546-3.335-1.636-4.59-1.091-1.256-2.456-1.884-4.096-1.884-.673 0-1.288.19-1.846.567-.213.13-.434.303-.664.516-.23.214-.377.378-.443.493 0-.394-.082-.73-.246-1.01-.23-.377-.844-.566-1.845-.566-1.033 0-1.664.206-1.894.616-.131.23-.21.439-.234.627-.024.19-.037.464-.037.825v8.815c.003.327.015.577.037.748.025.189.095.406.21.652.229.444.86.665 1.894.665 1.05 0 1.68-.221 1.894-.665.131-.23.21-.439.234-.627.024-.189.037-.472.037-.85v-4.356c0-.64.2-1.157.602-1.551.402-.394.927-.59 1.575-.59.648 0 1.164.188 1.55.565.385.378.578.903.578 1.576v4.332c0 .558.049.976.147 1.255.18.607.853.911 2.018.911zm14.908 0c1.017 0 1.648-.213 1.894-.64.132-.23.21-.439.234-.628.025-.188.037-.463.037-.824V8.197c0-.378-.012-.66-.037-.85-.024-.188-.094-.405-.209-.652-.23-.443-.861-.664-1.894-.664-1.05 0-1.681.213-1.895.64-.13.246-.209.463-.233.652-.025.189-.037.472-.037.85v4.356c0 .64-.201 1.157-.603 1.551-.402.394-.927.59-1.574.59-.648 0-1.165-.188-1.55-.565-.386-.378-.578-.903-.578-1.576V8.222c0-.575-.05-.993-.148-1.256-.197-.623-.87-.935-2.017-.935-1.05 0-1.69.221-1.92.664-.114.247-.184.46-.208.64-.025.18-.037.468-.037.862v4.308c0 1.805.545 3.335 1.636 4.59 1.09 1.256 2.464 1.883 4.12 1.883.657 0 1.263-.18 1.821-.541.213-.148.435-.328.664-.542.23-.213.377-.377.443-.492 0 .394.082.73.246 1.01.23.393.845.59 1.845.59z" transform="translate(0 2) translate(.11 28.357)"/>
        </g>
        <path fill="#E00000" stroke="#E00000" stroke-linecap="round" stroke-linejoin="round" stroke-width="2" d="M62.118 14.03h5.536l-.615 9.355 6.15-14.031h-5.535L68.269 0l-6.15 14.03z" transform="translate(0 2)"/>
    </g>
</svg>
