<?xml version="1.0" encoding="UTF-8"?>
<svg width="18px" height="29px" viewBox="0 0 18 29" version="1.1" xmlns="http://www.w3.org/2000/svg" xmlns:xlink="http://www.w3.org/1999/xlink">
    <title>dollar</title>
    <g id="v2" stroke="none" stroke-width="1" fill="none" fill-rule="evenodd">
        <g id="Home/Desktop-Copy" transform="translate(-670.000000, -1217.000000)" fill="#E00000" fill-rule="nonzero">
            <g id="dollar" transform="translate(670.000000, 1217.000000)">
                <path d="M7.56604535,29 L10.2279852,29 C10.8325854,29 11.334177,28.5214374 11.334177,27.9287192 L11.334177,25.4508895 L11.8870958,25.3079378 C16.3996503,24.2082038 18,21.2021041 18,18.9669839 C18,14.8251552 14.3129301,13.1042497 10.6998424,11.9616644 C7.30799294,10.8763284 6.224102,10.2191619 6.224102,9.24798156 C6.224102,8.37690171 7.26374527,7.50547905 9.59400458,7.50547905 C12.1600155,7.50547905 13.7674448,8.21235298 14.4531067,8.51951061 C14.600717,8.58361605 14.7554068,8.61961109 14.9100967,8.61961109 C15.3377062,8.61961109 15.7285016,8.37690171 15.9129259,8.00529582 L16.9674364,5.84147999 C17.0927458,5.59157161 17.107613,5.29161298 17.0042504,5.02730658 C16.9083215,4.75580117 16.7019503,4.54154501 16.4364643,4.42019032 C15.1681491,3.84187009 13.7893917,3.4702642 12.2332896,3.29200307 L11.5844418,3.21349962 L11.5844418,1.0640818 C11.5844418,0.478562563 11.0902838,0 10.47825,0 L7.86055784,0 C7.25595768,0 6.75436608,0.478562563 6.75436608,1.0640818 L6.75436608,3.456209 L6.2014472,3.5919617 C2.55862499,4.48463857 0.383409517,6.74821207 0.383409517,9.64049885 C0.383409517,13.4539157 4.28428414,15.1532242 8.11117665,16.3174065 C11.6432027,17.4315385 12.1224935,18.3955198 12.1224935,19.1952952 C12.1224935,20.430782 10.4708164,21.330315 8.19967199,21.330315 C6.26764171,21.330315 4.18835519,20.8517525 2.63968672,20.0519771 C2.47756326,19.9662746 2.30057258,19.9234234 2.11614829,19.9234234 C1.99827249,19.9234234 1.88004272,19.9450204 1.76216693,19.9806726 C1.47473406,20.0807731 1.23862849,20.2878303 1.11331909,20.5589928 L0.0956226691,22.7512619 C-0.133049291,23.2582777 0.0588086074,23.8437969 0.560046217,24.1153023 C1.85030828,24.8365743 3.76747135,25.3720433 5.80286418,25.5934984 L6.45914563,25.6579467 L6.45914563,27.9287192 C6.45985359,28.5214374 6.95401157,29 7.56604535,29 Z" id="Path"></path>
            </g>
        </g>
    </g>
</svg>