<?xml version="1.0" encoding="UTF-8"?>
<svg width="173px" height="173px" viewBox="0 0 173 173" version="1.1" xmlns="http://www.w3.org/2000/svg" xmlns:xlink="http://www.w3.org/1999/xlink">
    <title>noun_dollar_3505837</title>
    <g id="v2" stroke="none" stroke-width="1" fill="none" fill-rule="evenodd">
        <g id="noun_dollar_3505837" fill="#E00000" fill-rule="nonzero">
            <path d="M86.5,0 C134.272631,0 173,38.7273692 173,86.5 C173,134.272631 134.272631,173 86.5,173 C38.7273692,173 0,134.272631 0,86.5 C0,38.7273692 38.7273692,0 86.5,0 Z M86.5,8.23809524 C43.2771435,8.23809524 8.23809524,43.2771435 8.23809524,86.5 C8.23809524,129.722856 43.2771435,164.761905 86.5,164.761905 C129.722856,164.761905 164.761905,129.722856 164.761905,86.5 C164.761905,43.2771435 129.722856,8.23809524 86.5,8.23809524 Z" id="Shape"></path>
            <path d="M86.5,20 C123.226936,20 153,49.7730641 153,86.5 C153,123.226936 123.226936,153 86.5,153 C49.7730641,153 20,123.226936 20,86.5 C20,49.7730641 49.7730641,20 86.5,20 Z M86.5,28.3125 C54.3639311,28.3125 28.3125,54.3639311 28.3125,86.5 C28.3125,118.636068 54.3639311,144.6875 86.5,144.6875 C118.636068,144.6875 144.6875,118.636068 144.6875,86.5 C144.6875,54.3639311 118.636068,28.3125 86.5,28.3125 Z" id="Shape"></path>
            <path d="M88.6447759,45 L88.6447759,56.5694373 C91.9277114,56.6265706 95.291857,56.9693653 98.7373132,57.5978317 C102.18277,58.2262981 105.07561,58.9547369 107.41592,59.7831698 L107.41592,68.1817243 L106.733333,68.1817243 C104.29551,66.8676582 101.752086,65.7035845 99.1029847,64.6894682 C96.4538839,63.675352 92.9678491,63.0397534 88.6447759,62.7826536 L88.6447759,81.2509032 L90.168408,81.5026455 L93.8941949,82.2483507 C94.2084009,82.3070707 94.506356,82.3602364 94.7880594,82.4078468 C99.6312015,83.3219798 103.377267,84.8931225 106.026368,87.1213214 C108.67547,89.3495203 110,92.3918239 110,96.2483218 C110,100.676153 108.033519,104.354055 104.100497,107.282138 C100.167476,110.210219 95.0156203,111.945618 88.6447759,112.488384 L88.6447759,128 L82.8915422,128 L82.8915422,112.702633 C78.6009739,112.674067 74.5705002,112.309847 70.8,111.609964 C67.0295002,110.910081 63.7628662,110.003103 61,108.889003 L61,100.404749 L61.7800995,100.404749 L62.755223,100.970366 C63.3597983,101.296024 64.1398957,101.685956 65.0955224,102.140166 C66.6882335,102.897181 68.232165,103.518497 69.7273631,104.00413 C71.417587,104.546897 73.3921947,105.053947 75.6512442,105.525297 C77.9102928,105.996647 80.3237021,106.275167 82.8915422,106.360867 L82.8915422,87.806918 L79.2835823,87.1427462 C78.1784355,86.9284966 77.154565,86.7071082 76.2119406,86.4785752 C70.913738,85.3073423 67.110791,83.5433781 64.8029851,81.1866288 C62.4951791,78.8298795 61.3412935,75.923266 61.3412935,72.4667011 C61.3412935,68.2388362 63.2346411,64.6680579 67.021393,61.7542592 C70.8081446,58.8404604 76.0981422,57.14077 82.8915422,56.6551368 L82.8915422,45 L88.6447759,45 Z M88.6447759,88.5353642 L88.6447759,106.275167 C92.5452935,105.932368 95.5437709,105.061098 97.6402988,103.661332 C99.7368267,102.261566 100.785075,100.161949 100.785075,97.3624158 C100.785075,94.6771509 99.8343375,92.7132223 97.9328362,91.4705729 C96.031334,90.2279234 92.9353449,89.2495302 88.6447759,88.5353642 L88.6447759,88.5353642 Z M82.8915422,62.8255034 C79.413581,63.0540366 76.4882377,63.8895987 74.1154225,65.3322148 C71.7426081,66.7748308 70.5562193,68.7816082 70.5562193,71.3526071 C70.5562193,73.9521729 71.4338223,75.9089593 73.1890546,77.2230253 C74.9442877,78.5370912 78.1784175,79.636891 82.8915422,80.522457 L82.8915422,62.8255034 Z" id="Shape"></path>
        </g>
    </g>
</svg>