<?xml version="1.0" encoding="UTF-8"?>
<svg width="181px" height="110px" viewBox="0 0 181 110" version="1.1" xmlns="http://www.w3.org/2000/svg" xmlns:xlink="http://www.w3.org/1999/xlink">
    <title>noun_mask_3501968</title>
    <g id="v2" stroke="none" stroke-width="1" fill="none" fill-rule="evenodd">
        <g id="Artboard-Copy-3" transform="translate(-22.000000, -73.000000)" fill="#E00000" fill-rule="nonzero">
            <g id="Group" transform="translate(22.000000, 73.000000)">
                <path d="M34.3631564,0.0130845212 C30.712189,0.0130845212 27.4914617,2.01008667 25.350926,4.86185016 C23.2103933,7.7136106 22,11.4605414 22,15.5386839 L22,82.0121363 C22,85.8024906 22.675747,89.0522476 24.6513462,91.6260644 C26.6269483,94.1998813 29.4956283,95.788067 33.2403016,97.3167933 C33.3003444,97.3406609 33.3611267,97.3625628 33.4225544,97.3824652 C33.4225544,97.3824652 42.7915548,100.522341 54.5510285,103.66436 C66.3105052,106.806379 80.3661835,110 90.5000105,110 C100.633807,110 114.683616,106.806379 126.44309,103.66436 C138.202564,100.522341 147.577461,97.3824652 147.577461,97.3824652 C147.640936,97.36071 147.703678,97.3368086 147.765583,97.3108009 C151.479597,95.7824781 154.344984,94.1993218 156.325143,91.632014 C158.305272,89.0647093 159,85.8109014 159,82.0121149 L159,15.5386839 C159,11.4593459 157.800984,7.65256146 155.660816,4.74242095 C153.520677,1.83228043 150.184774,-0.254103305 146.413451,0.025029583 C146.378101,0.0264352932 146.342779,0.0284738424 146.3075,0.0311442806 C146.3075,0.0311442806 108.802194,4.16931174 90.4998901,4.16931174 C72.1975473,4.16931174 34.6922589,0.0311442806 34.6922589,0.0311442806 C34.5829277,0.0190274164 34.473025,0.0130056013 34.363045,0.0131059226 L34.3631564,0.0130845212 Z M144.166437,11.0090876 C145.503264,10.9155837 146.777575,11.5397452 147.962168,13.0621379 C149.146762,14.5845277 150,16.9412151 150,19.4846349 L150,79.3132963 C150,82.1092178 149.564595,83.4879618 148.673176,84.5802808 C147.788666,85.664108 146.050171,86.7332107 142.923598,87.9554527 C142.805503,87.9928212 134.212064,90.7180452 123.273144,93.4804121 C112.25944,96.2616613 98.9142994,99 90.50001,99 C82.085692,99 68.7405545,96.2616613 57.726853,93.4804121 C46.7756016,90.714933 38.1527021,87.9813328 38.0540094,87.9500786 C34.914856,86.7310451 33.1839173,85.6616755 32.3100293,84.5856549 C31.4276626,83.4991971 31,82.1168098 31,79.3132963 L31,19.4846349 C31,16.9401419 31.8330877,14.7013718 33.0154308,13.2126218 C34.1913934,11.7319124 35.5679487,11.0327992 37.0182994,11.0252127 C37.5181262,11.0779909 72.3665987,14.7550966 90.50001,14.7550966 C108.717556,14.7550966 143.988434,11.0279067 144.166437,11.0090876 L144.166437,11.0090876 Z" id="Shape"></path>
                <path d="M43.4001316,25.4337949 C41.9382009,25.4894984 40.7297266,26.5828281 40.5393501,28.0219986 C40.4345437,28.8057195 40.6481528,29.5986229 41.1330975,30.2259514 C41.6180423,30.8532798 42.3345156,31.2635385 43.1246054,31.3663056 C43.1246054,31.3663056 74.0560998,35.437634 90.1633187,35.437634 C106.270511,35.437634 137.202005,31.3663056 137.202005,31.3663056 C137.992095,31.2635392 138.708569,30.8532809 139.193515,30.2259523 C139.67846,29.5986238 139.89207,28.80572 139.787263,28.0219986 C139.683682,27.2381161 139.270172,26.527272 138.637873,26.0461383 C138.005574,25.5650046 137.206389,25.3530757 136.41646,25.4570612 C136.41646,25.4570612 105.223027,29.48186 90.1633187,29.48186 C75.1035867,29.48186 43.9042829,25.4570612 43.9042829,25.4570612 C43.7371877,25.4352899 43.5685413,25.4275199 43.4001316,25.4338336 L43.4001316,25.4337949 Z" id="Path"></path>
                <path d="M43.4001316,45.6683047 C41.9382009,45.7240081 40.7297266,46.8173379 40.5393501,48.2565083 C40.4345437,49.0402293 40.6481528,49.8331327 41.1330975,50.4604611 C41.6180423,51.0877896 42.3345156,51.4980482 43.1246054,51.6008154 C43.1246054,51.6008154 74.0560998,55.6721437 90.1633187,55.6721437 C106.270511,55.6721437 137.202005,51.6008154 137.202005,51.6008154 C137.992095,51.498049 138.708569,51.0877906 139.193515,50.4604621 C139.67846,49.8331335 139.89207,49.0402297 139.787263,48.2565083 C139.683682,47.4726253 139.270173,46.7617805 138.637874,46.2806462 C138.005575,45.7995118 137.206389,45.5875825 136.41646,45.6915679 C136.41646,45.6915679 105.223027,49.7163698 90.1633187,49.7163698 C75.1035867,49.7163698 43.9042829,45.6915709 43.9042829,45.6915679 C43.7371888,45.6697847 43.5685423,45.6620028 43.4001316,45.6683047 Z" id="Path"></path>
                <path d="M43.5290988,65.9028144 C42.1627487,65.8974147 40.9651519,66.8082771 40.6155605,68.1187792 C40.4118231,68.8823436 40.5221892,69.6949342 40.922375,70.3777577 C41.3225608,71.0605812 41.9797786,71.5576928 42.7494213,71.7597136 C42.7494213,71.7597136 50.5555969,73.8026572 60.3361741,75.8426736 C70.1167482,77.8826929 81.7997157,79.9489028 90.1633187,79.9489028 C98.5268617,79.9489028 110.204,77.8826929 119.984568,75.8426736 C129.765137,73.8026572 137.571336,71.7597136 137.571336,71.7597136 C138.342061,71.5589521 139.000689,71.0623628 139.402059,70.3793938 C139.803429,69.6964248 139.914595,68.8831372 139.711056,68.1187792 C139.507434,67.3551828 139.006384,66.7031286 138.31815,66.3060878 C137.629917,65.909047 136.810888,65.7995499 136.041276,66.0016892 C136.041276,66.0016892 128.368852,68.0080822 118.747632,70.0148564 C109.126442,72.0216307 97.4862812,73.9931288 90.1633187,73.9931288 C82.8403262,73.9931288 71.1943069,72.0216307 61.5731079,70.0148564 C51.9519089,68.0080822 44.279467,66.0016892 44.279467,66.0016892 C44.0345517,65.9374487 43.7824245,65.9042294 43.5290988,65.9028233 L43.5290988,65.9028144 Z" id="Path"></path>
                <path d="M7.02190793,24.1018873 C2.65640821,30.5422052 0.0839584836,39.1694445 0.0839584836,48.6461916 C0.0839584836,58.1229358 2.65640821,66.7501781 7.02190793,73.190496 C11.3874046,79.6308108 17.7727736,83.9969679 25.0582091,83.9969679 C26.7292809,83.9969679 28.0839585,82.6637191 28.0839585,81.0190809 C28.0839585,79.3744427 26.7292809,78.0412021 25.0582091,78.0411939 C20.2239876,78.0411939 15.6338229,75.1637898 12.0569424,69.8868996 C8.48006192,64.6100124 6.13545717,57.0492944 6.13545717,48.6461916 C6.13545717,40.2430859 8.48006192,32.6823709 12.0569424,27.4054837 C15.6338229,22.1285935 20.2239876,19.2511894 25.0582091,19.2511894 C26.7292809,19.2511811 28.0839585,17.9179405 28.0839585,16.2733024 C28.0839585,14.6286642 26.7292809,13.2954154 25.0582091,13.2954154 C17.7727736,13.2954154 11.3874046,17.6615725 7.02190793,24.1018873 Z" id="Path"></path>
                <path d="M155.468786,13.2954154 C153.811122,13.2954154 152.467314,14.6286642 152.467314,16.2733024 C152.467314,17.9179405 153.811122,19.2511811 155.468786,19.2511894 C160.264209,19.2511894 164.817563,22.1285935 168.365723,27.4054837 C171.913914,32.6823709 174.233842,40.2430859 174.233842,48.6461916 C174.233842,57.0492944 171.913914,64.6100124 168.365723,69.8868996 C164.817563,75.1637898 160.264209,78.0411939 155.468786,78.0411939 C153.811122,78.0412021 152.467314,79.3744427 152.467314,81.0190809 C152.467314,82.6637191 153.811122,83.9969679 155.468786,83.9969679 C162.695762,83.9969679 169.024036,79.6308108 173.354501,73.190496 C177.684965,66.7501781 180.236787,58.1229358 180.236787,48.6461916 C180.236787,39.1694445 177.684965,30.5422052 173.354501,24.1018873 C169.024036,17.6615725 162.695762,13.2954154 155.468786,13.2954154 L155.468786,13.2954154 Z" id="Path"></path>
            </g>
        </g>
    </g>
</svg>